<svg xmlns="http://www.w3.org/2000/svg" viewBox="0 0 1920 1920">
  <defs>
    <clipPath id="logo">
      <rect x="0" y="0" width="1920" height="1920" />
    </clipPath>
  </defs>
  <g clip-path="url(#logo)">
          <rect fill="white" width="1920" height="1920"/>
    <g transform="scale(4.8)">
      <defs>
<linearGradient gradientUnits="userSpaceOnUse" id="color-1" x1="200" x2="200" y1="252" y2="30">
<stop offset="0" stop-color="#a91805"/>
<stop offset="1" stop-color="#f94b34"/>
</linearGradient>
</defs>
<g fill="none" font-family="none" font-size="none" font-weight="none" stroke-miterlimit="10" style="mix-blend-mode:normal" text-anchor="none">
<rect fill="none" height="400" width="400"/>
<g fill="#000" id="text">
<path d="m80.302 271c2.8367 0 5.502 0.18086 7.996 0.54259 2.494 0.36172 4.7976 0.80912 6.9108 1.3422l-1.0852 6.968c-1.4279-0.41884-2.9509-0.77105-4.5692-1.0566-1.6373-0.28557-3.2174-0.51403-4.7405-0.68537-1.504-0.19038-2.8176-0.28557-3.9409-0.28557-2.4178 0-4.1027 0.41884-5.0546 1.2565-0.97095 0.81864-1.4564 1.7515-1.4564 2.7986 0 0.95191 0.35221 1.7515 1.0566 2.3988 0.68537 0.6473 1.6278 1.2089 2.8272 1.6849 2.018 0.68537 3.9504 1.266 5.7971 1.742s3.5316 1.009 5.0546 1.5992c1.504 0.57114 2.8176 1.2851 3.9409 2.1418 1.1042 0.87576 1.9609 2.0276 2.5702 3.4554 0.62826 1.4469 0.94239 3.3031 0.94239 5.5687 0 2.9509-0.71393 5.3021-2.1418 7.0536-1.4279 1.7325-3.3698 2.9795-5.8257 3.741-2.4559 0.74249-5.2164 1.1328-8.2816 1.1708-1.7706 0-3.6077-0.09519-5.5116-0.28557-1.9228-0.19038-3.7696-0.47595-5.5401-0.85672-1.7706-0.3998-3.3222-0.86624-4.6548-1.3993l1.0852-6.968c1.3517 0.38076 2.9033 0.76153 4.6548 1.1423 1.7706 0.36172 3.5506 0.65682 5.3402 0.88527 1.7896 0.22846 3.3317 0.34269 4.6263 0.34269 1.8848 0 3.265-0.26653 4.1408-0.7996 0.89479-0.53307 1.4755-1.1328 1.742-1.7991 0.26653-0.6473 0.3998-1.1613 0.3998-1.5421 0-1.3136-0.32365-2.2846-0.97095-2.9128-0.66634-0.62826-1.8181-1.1899-3.4554-1.6849-2.3798-0.70441-4.6358-1.3232-6.7681-1.8562s-4.0266-1.2184-5.6829-2.0561c-1.6373-0.85672-2.9319-2.0656-3.8838-3.6268-0.93287-1.5802-1.3993-3.7315-1.3993-6.4539 0-2.7986 0.66634-5.0451 1.999-6.7395 1.3517-1.6944 3.2174-2.9224 5.5972-3.6839 2.3798-0.76153 5.1403-1.1423 8.2816-1.1423zm28.757 25.559v-9.3382c0-3.6363 0.78056-6.6538 2.3417-9.0526 1.5421-2.3988 3.722-4.1979 6.5396-5.3973 2.8367-1.1804 6.1493-1.7706 9.9379-1.7706 3.8457 0 7.1774 0.59018 9.995 1.7706 2.8176 1.1994 4.9975 2.9985 6.5396 5.3973 1.523 2.3988 2.2846 5.4164 2.2846 9.0526v9.3382c0 3.5982-0.76153 6.5777-2.2846 8.9384-1.5421 2.3607-3.722 4.1027-6.5396 5.226-2.8176 1.1423-6.1493 1.7134-9.995 1.7134-3.8267 0-7.1584-0.57114-9.995-1.7134-2.8176-1.1232-4.988-2.8652-6.511-5.226-1.5421-2.3607-2.3131-5.3402-2.3131-8.9384zm10.309-8.5386v7.3678c0 2.7986 0.66634 5.0737 1.999 6.8252 1.3517 1.7515 3.5221 2.6273 6.511 2.6273 3.1413 0 5.3497-0.87576 6.6253-2.6273 1.2565-1.7515 1.8848-4.0266 1.8848-6.8252v-7.3678c0-1.7515-0.27605-3.3412-0.82816-4.7691s-1.4469-2.5606-2.6844-3.3983c-1.2184-0.83768-2.8843-1.2565-4.9975-1.2565-2.9128 0-5.0642 0.88527-6.4539 2.6558-1.3708 1.7896-2.0561 4.0456-2.0561 6.7681zm42.493 23.845v-40.294h9.9094v31.527h18.077v8.7671zm63.026 0-2.4845-8.71h-12.308l-2.4845 8.71h-10.423l12.965-40.294h12.48l12.594 40.294zm-8.4244-31.156-4.9404 15.906h9.5667zm59.313-9.1383h8.7671v40.294h-9.6809l-17.734-25.33v25.33h-8.7385v-40.294h9.9094l17.477 24.988zm49.433 40.294-2.4845-8.71h-12.308l-2.4845 8.71h-10.423l12.965-40.294h12.48l12.622 40.294zm-8.3958-31.156-4.969 15.906h9.5667z"/>
<path d="m105.66 354.07v15.364h-9.9094v-40.294h26.844v8.2816h-16.934v9.0241h13.936v7.6248zm27.015 0.05712v-9.3382c0-3.6363 0.78056-6.6538 2.3417-9.0526s3.7505-4.1979 6.5682-5.3973c2.8176-1.1804 6.1303-1.7706 9.9379-1.7706 3.8267 0 7.1488 0.59018 9.9665 1.7706 2.8176 1.1994 4.9975 2.9985 6.5396 5.3973s2.3131 5.4164 2.3131 9.0526v9.3382c0 3.5982-0.77105 6.5777-2.3131 8.9384s-3.722 4.1027-6.5396 5.226c-2.8176 1.1423-6.1398 1.7134-9.9665 1.7134-3.8457 0-7.1774-0.57114-9.995-1.7134-2.8176-1.1232-4.9975-2.8652-6.5396-5.226s-2.3131-5.3402-2.3131-8.9384zm10.309-8.5386v7.3678c0 2.7986 0.67585 5.0737 2.0276 6.8252 1.3327 1.7515 3.503 2.6273 6.511 2.6273 3.1413 0 5.3402-0.87576 6.5967-2.6273 1.2756-1.7515 1.9133-4.0266 1.9133-6.8252v-7.3678c0-1.7515-0.27605-3.3412-0.82816-4.7691-0.57114-1.4279-1.4659-2.5606-2.6844-3.3983-1.2375-0.83768-2.9033-1.2565-4.9975-1.2565-2.9319 0-5.0832 0.88527-6.4539 2.6558-1.3898 1.7896-2.0847 4.0456-2.0847 6.7681zm65.539 23.845-7.8818-15.535h-5.226v15.535h-9.9094v-40.294h15.421c3.9599 0 7.1488 0.41884 9.5667 1.2565 2.4178 0.83768 4.1789 2.2275 5.2831 4.1694 1.1232 1.9419 1.6849 4.5596 1.6849 7.8532 0 2.3798-0.37124 4.3693-1.1137 5.9685-0.72345 1.5992-1.6563 2.8176-2.7986 3.6553-1.1232 0.83768-2.3417 1.3708-3.6553 1.5992l9.6809 15.792zm-13.108-32.926v11.68h5.8542c2.0371 0 3.5696-0.40932 4.5977-1.228 1.0471-0.83768 1.5706-2.3512 1.5706-4.5406 0-2.1513-0.50451-3.6744-1.5135-4.5692-0.98998-0.89479-2.5416-1.3422-4.6548-1.3422zm67.252 10.423v20.59c-2.1513 0.85672-4.3788 1.485-6.6824 1.8848-2.3036 0.3998-4.7595 0.5997-7.3678 0.5997-3.6744 0-6.9013-0.54259-9.6809-1.6278-2.7605-1.0661-4.9118-2.7891-6.4539-5.1689-1.5611-2.3798-2.3417-5.483-2.3417-9.3097v-8.9955c0-3.8838 0.78056-7.0251 2.3417-9.4239 1.5421-2.3798 3.6934-4.1313 6.4539-5.2545 2.7796-1.1042 6.0065-1.6563 9.6809-1.6563 4.7215 0 9.1002 0.60922 13.136 1.8277l-1.742 7.5391c-1.6182-0.45692-3.3126-0.82816-5.0832-1.1137-1.7896-0.28557-3.4935-0.42836-5.1117-0.42836-3.484 0-5.978 0.73297-7.482 2.1989-1.485 1.485-2.2275 3.7029-2.2275 6.6538v8.6528c0 5.9018 2.8367 8.8527 8.51 8.8527 0.98998 0 2.0561-0.07615 3.1984-0.22846 1.1232-0.15231 2.2465-0.36172 3.3698-0.62826v-8.71l-7.5962-0.34269v-5.9114zm24.673 4.9975v9.9665h16.906v7.5391h-26.815v-40.294h26.815v7.5391h-16.906v8.3387h13.907v6.9108z"/>
</g>
<g fill="url(#color-1)" id="symbol">
<path d="m131.39 35.383c12.47-6.4686 26.791-5.3095 40.364-5.2908 44.439 0.05609 88.86-0.07478 133.28 0.48608-6.936 10.656-15.293 20.322-21.892 31.184-8.8617 14.265-17.592 28.604-26.305 42.962-46.458 0.18695-92.935 0.16826-139.37 0.13087-12.489-0.4113-21.5 14.152-16.957 25.388 3.4587 6.9547 10.6 12.75 18.733 12.283 42.439-0.14956 84.878-0.13087 127.3-0.24304 6.0012 0 12.283 0.4113 17.649 3.4587 14.564 8.0391 27.165 20.696 32.717 36.624 6.0012 16.022 4.5804 34.867-4.5991 49.412-7.6278 11.629-21.444 17.2-34.68 19.331-23.482 3.3091-46.963-3.1034-68.856-11.105-17.536-6.5808-36.325-9.5908-53.301-17.667-16.938-7.8521-29.913-23.033-36.587-40.289-4.0195-10.039-3.7017-21.032-3.9074-31.633 0.13087-14.956 0.76652-29.913 0.59826-44.869 0.05609-8.3382-0.52347-16.77 0.93477-25.015 4.1504-19.182 16.377-37.372 34.886-45.15z"/>
</g>
</g>
    </g>
  </g>
</svg>