<svg width="46" height="49" viewBox="0 0 46 49" fill="none" xmlns="http://www.w3.org/2000/svg">
<path d="M8.24839 1.68834C10.9294 0.283758 14.0085 0.535444 16.9267 0.539504C26.481 0.551684 36.0316 0.523267 45.5819 0.645051C44.0906 2.95888 42.2939 5.05774 40.8751 7.4163C38.9698 10.5138 37.0928 13.6273 35.2195 16.745C25.231 16.7856 15.2385 16.7816 5.25495 16.7734C2.56981 16.6841 0.63245 19.8464 1.60919 22.2862C2.35282 23.7963 3.88819 25.0547 5.63679 24.9533C14.7612 24.9208 23.8856 24.9249 33.0063 24.9005C34.2965 24.9005 35.6471 24.9898 36.8008 25.6515C39.9321 27.3971 42.6413 30.1454 43.835 33.604C45.1252 37.083 44.8198 41.175 42.8462 44.3333C41.2062 46.8584 38.2357 48.068 35.39 48.5308C30.3413 49.2493 25.2929 47.8569 20.5859 46.1194C16.8157 44.6905 12.7761 44.0369 9.12622 42.2832C5.48455 40.5783 2.69492 37.2819 1.26001 33.535C0.395821 31.3551 0.464147 28.9681 0.419922 26.6662C0.448059 23.4187 0.584723 20.1709 0.548548 16.9234C0.560607 15.1129 0.436001 13.282 0.749523 11.4917C1.64186 7.32652 4.27058 3.37677 8.25001 1.68787L8.24839 1.68834Z" fill="url(#paint0_linear_1177_116)"/>
<defs>
<linearGradient id="paint0_linear_1177_116" x1="22.9995" y1="48.7243" x2="22.9995" y2="0.519485" gradientUnits="userSpaceOnUse">
<stop stop-color="#A91805"/>
<stop offset="1" stop-color="#F94B34"/>
</linearGradient>
</defs>
</svg>
