<svg width="8" height="8" viewBox="0 0 8 8" fill="none" xmlns="http://www.w3.org/2000/svg">
<g clip-path="url(#clip0_1177_123)">
<path d="M6.49739 4.0968C6.49739 4.5653 6.34139 5.0528 6.10739 5.4433L7.10239 6.4383C7.59039 5.7748 7.90239 4.9553 7.90239 4.0968C7.90239 3.1993 7.59039 2.3798 7.12189 1.7168L6.08789 2.7308C6.32189 3.1213 6.47789 3.5703 6.47789 4.0968H6.49739Z" fill="url(#paint0_linear_1177_123)"/>
<path d="M3.9999 6.57605C3.33753 6.57605 2.70228 6.31292 2.23391 5.84455C1.76553 5.37617 1.5024 4.74092 1.5024 4.07855C1.5024 3.41617 1.76553 2.78092 2.23391 2.31255C2.70228 1.84417 3.33753 1.58105 3.9999 1.58105C4.5074 1.58105 4.9754 1.71755 5.3659 1.99105L6.3409 0.976046C5.76042 0.539836 5.06974 0.274228 4.34656 0.209094C3.62337 0.14396 2.89635 0.281882 2.24726 0.607351C1.59818 0.93282 1.05277 1.43293 0.672371 2.05143C0.291975 2.66993 0.0916812 3.38229 0.0940143 4.1084C0.0963474 4.83451 0.301215 5.54557 0.685578 6.16162C1.06994 6.77766 1.61855 7.27425 2.26972 7.59554C2.92088 7.91683 3.64877 8.05008 4.37153 7.9803C5.09428 7.91052 5.78323 7.64048 6.3609 7.20055L5.3854 6.18555C4.9766 6.44325 4.50265 6.57874 4.0194 6.57605H3.9999Z" fill="black"/>
</g>
<defs>
<linearGradient id="paint0_linear_1177_123" x1="6.99514" y1="1.7168" x2="6.99514" y2="6.4383" gradientUnits="userSpaceOnUse">
<stop stop-color="#B9220E"/>
<stop offset="0.9999" stop-color="#050000" stop-opacity="0.61"/>
<stop offset="1" stop-opacity="0"/>
</linearGradient>
<clipPath id="clip0_1177_123">
<rect width="8" height="8" fill="white"/>
</clipPath>
</defs>
</svg>
